<svg display="none" xmlns="http://www.w3.org/2000/svg">
	<symbol id="arrow-left" viewBox="0 0 30 30">
		<g>
			<path
				d="M23.75 13.7152H8.925L13.4625 8.10999C13.6747 7.84745 13.7768 7.50898 13.7463 7.16903C13.7158 6.82909 13.5553 6.51551 13.3 6.2973C13.0447 6.07908 12.7156 5.9741 12.3851 6.00544C12.0546 6.03678 11.7497 6.20188 11.5375 6.46443L5.2875 14.178C5.24545 14.2394 5.20785 14.3038 5.175 14.3709C5.175 14.4351 5.175 14.4737 5.0875 14.538C5.03084 14.6854 5.00118 14.8423 5 15.0008C5.00118 15.1593 5.03084 15.3162 5.0875 15.4636C5.0875 15.5279 5.0875 15.5665 5.175 15.6307C5.20785 15.6978 5.24545 15.7622 5.2875 15.8236L11.5375 23.5372C11.655 23.6823 11.8022 23.799 11.9686 23.879C12.1349 23.959 12.3164 24.0003 12.5 24C12.7921 24.0006 13.0751 23.896 13.3 23.7043C13.4266 23.5964 13.5312 23.4638 13.6079 23.3143C13.6846 23.1647 13.7318 23.001 13.7469 22.8326C13.762 22.6643 13.7447 22.4945 13.6959 22.333C13.6471 22.1715 13.5678 22.0215 13.4625 21.8916L8.925 16.2864H23.75C24.0815 16.2864 24.3995 16.151 24.6339 15.9099C24.8683 15.6688 25 15.3418 25 15.0008C25 14.6598 24.8683 14.3328 24.6339 14.0917C24.3995 13.8507 24.0815 13.7152 23.75 13.7152Z" />
		</g>
	</symbol>
	<symbol id="arrow-right" viewBox="0 0 30 30">
		<g>
			<path
				d="M6.25 13.7152H21.075L16.5375 8.10999C16.3253 7.84745 16.2232 7.50898 16.2537 7.16903C16.2842 6.82909 16.4447 6.51551 16.7 6.2973C16.9553 6.07908 17.2844 5.9741 17.6149 6.00544C17.9454 6.03678 18.2503 6.20188 18.4625 6.46443L24.7125 14.178C24.7545 14.2394 24.7922 14.3038 24.825 14.3709C24.825 14.4351 24.825 14.4737 24.9125 14.538C24.9692 14.6854 24.9988 14.8423 25 15.0008C24.9988 15.1593 24.9692 15.3162 24.9125 15.4636C24.9125 15.5279 24.9125 15.5665 24.825 15.6307C24.7922 15.6978 24.7545 15.7622 24.7125 15.8236L18.4625 23.5372C18.345 23.6823 18.1978 23.799 18.0314 23.879C17.8651 23.959 17.6836 24.0003 17.5 24C17.2079 24.0006 16.9249 23.896 16.7 23.7043C16.5734 23.5964 16.4688 23.4638 16.3921 23.3143C16.3154 23.1647 16.2682 23.001 16.2531 22.8326C16.238 22.6643 16.2553 22.4945 16.3041 22.333C16.3529 22.1715 16.4322 22.0215 16.5375 21.8916L21.075 16.2864H6.25C5.91848 16.2864 5.60054 16.151 5.36612 15.9099C5.13169 15.6688 5 15.3418 5 15.0008C5 14.6598 5.13169 14.3328 5.36612 14.0917C5.60054 13.8507 5.91848 13.7152 6.25 13.7152Z" />
		</g>
	</symbol>

	<symbol id="menu_svg" viewBox="0 0 50 50">
		<g>
			<path
				d="M 3 8 A 2.0002 2.0002 0 1 0 3 12 L 47 12 A 2.0002 2.0002 0 1 0 47 8 L 3 8 z M 3 23 A 2.0002 2.0002 0 1 0 3 27 L 47 27 A 2.0002 2.0002 0 1 0 47 23 L 3 23 z M 3 38 A 2.0002 2.0002 0 1 0 3 42 L 47 42 A 2.0002 2.0002 0 1 0 47 38 L 3 38 z" />
		</g>
</svg>