<svg width="35" height="37" viewBox="0 0 35 37" fill="none" xmlns="http://www.w3.org/2000/svg">
<g id="Standard Collection 27">
<path id="Vector" d="M31.1473 14.0602L31.1255 14.0386C31.1238 14.0374 31.1224 14.0358 31.1215 14.0339L17.5006 0.5L3.87983 14.0335C3.87826 14.0351 3.8758 14.0382 3.8758 14.0382L3.85333 14.0599C1.77053 16.1409 0.447586 18.854 0.0948177 21.7679C-0.25795 24.6819 0.379698 27.6293 1.90639 30.1418C3.43309 32.6543 5.76122 34.5877 8.52069 35.6345C11.2802 36.6812 14.3126 36.7815 17.136 35.9191C17.3735 35.847 17.6275 35.847 17.8651 35.9191C20.6882 36.7812 23.7205 36.6809 26.4798 35.634C29.2391 34.587 31.567 32.6538 33.0936 30.1415C34.6202 27.6291 35.2579 24.6819 34.9053 21.7681C34.5526 18.8544 33.2299 16.1413 31.1473 14.0602ZM8.7232 22.9847C8.65689 23.0506 8.6043 23.1289 8.56844 23.2148C8.53257 23.3008 8.5141 23.3931 8.51412 23.4862C8.53835 25.8748 9.21776 28.2116 10.4792 30.2451C10.5079 30.2912 10.5211 30.3452 10.517 30.3992C10.513 30.4532 10.4918 30.5046 10.4566 30.546C10.4213 30.5874 10.3738 30.6166 10.3209 30.6295C10.2679 30.6425 10.2122 30.6385 10.1616 30.618C9.21332 30.2217 8.35182 29.6455 7.62531 28.9219C6.13646 27.4423 5.29946 25.4361 5.2981 23.3438C5.29675 21.2516 6.13117 19.2442 7.61812 17.7629L17.5006 7.94468L27.3826 17.7629C28.8698 19.2441 29.7045 21.2514 29.703 23.3438C29.7018 25.4361 28.8647 27.4423 27.3757 28.9219C26.6492 29.6455 25.7877 30.2217 24.8396 30.618C24.7889 30.6385 24.7332 30.6425 24.6802 30.6295C24.6273 30.6166 24.5798 30.5873 24.5445 30.546C24.5093 30.5046 24.488 30.4532 24.484 30.3991C24.4799 30.3451 24.4931 30.2911 24.5218 30.2449C25.7835 28.2116 26.4633 25.8748 26.4879 23.4862C26.4879 23.3931 26.4692 23.3008 26.4332 23.2147C26.3971 23.1285 26.3444 23.0504 26.2779 22.9845L21.6037 18.0584C21.5571 18.0198 21.4985 17.9986 21.4378 17.9986C21.3773 17.9986 21.3186 18.0198 21.2721 18.0584C21.2255 18.0969 21.1942 18.1505 21.1833 18.2097C21.1724 18.269 21.1828 18.33 21.2127 18.3824C23.0281 21.6465 21.467 26.335 18.8637 28.9219L18.85 28.9355C18.4907 29.2887 18.0056 29.4867 17.5002 29.4865C16.9948 29.4863 16.5098 29.288 16.1508 28.9347L16.1382 28.9219C13.5339 26.335 11.9736 21.647 13.7893 18.3831C13.8192 18.3307 13.8296 18.2697 13.8187 18.2104C13.8079 18.1512 13.7764 18.0976 13.7299 18.0591C13.6834 18.0205 13.6247 17.9993 13.5642 17.9993C13.5036 17.9993 13.4449 18.0205 13.3984 18.0591L8.7232 22.9847Z" fill="#F53838"/>
</g>
</svg>
